HIERARCHY
ROOT Hips
{
  OFFSET 1.44925e-005 102.336 -0.101585
  CHANNELS 6 Xposition Yposition Zposition Zrotation Xrotation Yrotation
  JOINT LeftUpLeg
  {
    OFFSET 8.9458 -8.66707 0.101652
    CHANNELS 3 Zrotation Xrotation Yrotation
    JOINT LeftLeg
    {
      OFFSET 0 -44.4227 1.3727
      CHANNELS 3 Zrotation Xrotation Yrotation
      JOINT LeftFoot
      {
        OFFSET -0.253549 -42.0924 -1.46059
        CHANNELS 3 Zrotation Xrotation Yrotation
        JOINT LeftToes
        {
          OFFSET -0.04 -4.41509 8.4991
          CHANNELS 3 Zrotation Xrotation Yrotation
          End Site
          {
            OFFSET 0.08 -0.047448 9.77979
          }
        }
      }
    }
  }
  JOINT Spine
  {
    OFFSET 0 11.8905 0
    CHANNELS 3 Zrotation Xrotation Yrotation
    JOINT Spine1
    {
      OFFSET 0 25.6574 0.127663
      CHANNELS 3 Zrotation Xrotation Yrotation
      JOINT RightShoulder
      {
        OFFSET -8.99 -0.362252 -0.22
        CHANNELS 3 Zrotation Xrotation Yrotation
        JOINT RightArm
        {
          OFFSET -10.2827 -0.00338 0.322123
          CHANNELS 3 Zrotation Xrotation Yrotation
          JOINT RightForeArm
          {
            OFFSET -26.364 0.099144 -1.42434
            CHANNELS 3 Zrotation Xrotation Yrotation
            JOINT RightHand
            {
              OFFSET -22.0324 0.085362 1.02216
              CHANNELS 3 Zrotation Xrotation Yrotation
              End Site
              {
                OFFSET -13.3284 -0.6 1.50291
              }
            }
          }
        }
      }
      JOINT LeftShoulder1
      {
        OFFSET 8.99 -0.362252 -0.22
        CHANNELS 3 Zrotation Xrotation Yrotation
        JOINT LeftArm
        {
          OFFSET 10.2827 -0.00337999 0.322123
          CHANNELS 3 Zrotation Xrotation Yrotation
          JOINT LeftForeArm
          {
            OFFSET 26.2597 0.099144 -1.42434
            CHANNELS 3 Zrotation Xrotation Yrotation
            JOINT LeftHand
            {
              OFFSET 22.0902 0.085362 1.02216
              CHANNELS 3 Zrotation Xrotation Yrotation
              End Site
              {
                OFFSET 13.419 -0.6 1.50291
              }
            }
          }
        }
      }
      JOINT Head
      {
        OFFSET 0 8.73416 0.011341
        CHANNELS 3 Zrotation Xrotation Yrotation
        End Site
        {
          OFFSET -0.29 12.7742 2.51395
        }
      }
    }
  }
  JOINT RightUpLeg
  {
    OFFSET -8.9458 -8.66707 0.101652
    CHANNELS 3 Zrotation Xrotation Yrotation
    JOINT RightLeg
    {
      OFFSET 0 -44.4227 1.3727
      CHANNELS 3 Zrotation Xrotation Yrotation
      JOINT RightFoot
      {
        OFFSET 0.253549 -42.0924 -1.46059
        CHANNELS 3 Zrotation Xrotation Yrotation
        JOINT RightToes
        {
          OFFSET 0.04 -4.41509 8.4991
          CHANNELS 3 Zrotation Xrotation Yrotation
          End Site
          {
            OFFSET -0.08 -0.137448 9.77979
          }
        }
      }
    }
  }
}
MOTION
Frames:	17
Frame Time:	0.0333333
34.4205 99.1533 3.55214 -9.60853 2.30538 -89.8126 -0.649528 -14.9332 -4.14627 2.53443 69.3661 16.5308 -6.87669 -10.7657 -0.140284 -1.3474e-009 8.75224e-006 -1.45922e-008 10.5927 13.1213 -0.373904 -3.9636 -1.25659 2.525 35.6957 1.70148 0.0476666 38.7582 -2.66868 19.0309 4.79841 29.8511 15.6256 -9.34584 9.39744 1.37338 -44.7576 3.52308 -3.34327 -29.8003 -7.48773 13.6622 -3.91788 33.8074 -15.9554 5.82328 9.61819 -0.917488 0.491188 -8.66404 -8.77966 5.10955 -2.08163 -4.02251 0.398031 26.1266 -16.2766 0.0160616 -19.4178 -0.249125 0.0462048 0.000530889 0.662642 
31.8513 99.4261 3.28618 -9.70691 1.65361 -90.633 -1.48237 -16.9649 -4.59396 2.02413 63.6065 16.8226 -7.10396 -12.1403 -0.224603 -1.3474e-009 8.75224e-006 -1.45922e-008 9.75831 13.2082 0.114331 -4.41184 -1.36583 2.7958 35.2684 1.69407 0.0662634 38.7542 -1.17457 20.5046 4.61074 28.1042 16.3853 -9.55932 9.37457 1.51276 -44.9521 3.54307 -3.35321 -29.917 -6.40389 13.6037 -3.39533 32.1989 -16.9348 5.82328 9.61819 -0.917488 0.402685 -8.25093 -8.67988 4.42457 0.435974 -4.42381 0.30547 24.7798 -15.1006 -0.0475449 -20.4534 -0.263548 0.0462048 0.000530889 0.662642 
29.3188 99.6758 3.03349 -9.56422 1.06542 -91.5888 -1.74019 -18.3588 -4.46099 1.53109 55.5181 16.3146 -8.13244 -11.979 -0.252915 -1.3474e-009 8.75224e-006 -1.45922e-008 8.96987 13.054 0.574375 -5.04305 -1.44757 3.02363 35.2508 1.69722 0.0752576 38.6013 -0.0938075 21.8252 4.4775 27.3387 16.8099 -9.90149 9.34887 1.58117 -45.0123 3.55208 -3.36182 -29.7959 -5.946 13.1423 -3.23972 31.4614 -17.3016 5.82328 9.61819 -0.917488 0.406918 -7.9262 -8.40531 3.81473 2.70825 -4.67983 0.177326 23.2337 -13.8938 -0.201064 -21.1169 -0.286919 0.0462048 0.000530889 0.662642 
26.8122 99.8229 2.83054 -9.29885 0.700113 -92.4768 -1.57287 -18.9206 -4.17398 1.20076 45.7557 15.9511 -8.93917 -10.9729 -0.212245 -1.3474e-009 8.75224e-006 -1.45922e-008 8.51176 12.8008 0.845454 -5.83673 -1.49875 3.13836 35.3704 1.70386 0.0832862 38.6413 0.56392 22.7758 4.32331 27.3074 17.0252 -10.0046 9.34342 1.57072 -44.9486 3.54769 -3.36254 -29.4076 -6.3485 12.2992 -3.38141 31.7967 -17.047 5.82328 9.61819 -0.917488 0.39385 -7.70556 -8.04244 3.35688 4.77393 -4.91821 0.13758 21.7798 -12.8041 -0.196386 -21.7494 -0.291694 0.0462048 0.000530889 0.662642 
24.305 99.8954 2.65783 -9.08457 0.535565 -93.1869 -1.29038 -18.4805 -4.10712 1.02749 34.9156 16.1308 -8.67756 -10.8416 -0.193865 -1.3474e-009 8.75224e-006 -1.45922e-008 7.9667 12.6297 1.00554 -6.36377 -1.44276 3.13655 35.268 1.70865 0.102407 39.0135 0.956225 23.2462 4.27691 27.4823 17.0421 -9.96523 9.34188 1.62109 -44.9843 3.55174 -3.36196 -28.7951 -7.31422 11.141 -3.75239 32.8124 -16.3583 5.82328 9.61819 -0.917488 0.291562 -7.63815 -7.67697 3.05133 6.95153 -5.08625 0.180345 20.2064 -12.0055 0.0224178 -22.4374 -0.268815 0.0462048 0.000530889 0.662642 
21.7808 99.9733 2.49039 -8.95836 0.334195 -93.944 -1.0088 -17.2752 -3.5789 1.02078 23.6389 16.2914 -7.71909 -11.1222 -0.185365 -1.3474e-009 8.75224e-006 -1.45922e-008 6.90765 12.5678 1.21651 -6.50587 -1.26296 3.13659 35.1002 1.71238 0.126376 39.3583 1.32571 23.2453 4.46357 27.6648 16.7953 -10.0338 9.3296 1.72465 -45.077 3.56212 -3.36054 -28.2385 -8.21311 9.91897 -4.15849 33.6696 -15.6777 5.82328 9.61819 -0.917488 0.288201 -7.63653 -7.25717 2.7626 9.3483 -5.1092 0.121144 18.3114 -11.366 0.109745 -22.8196 -0.259593 0.0462048 0.000530889 0.662642 
19.1634 99.9374 2.3718 -8.89249 0.119136 -94.6921 -0.694878 -15.887 -1.86684 0.815007 13.7117 16.6532 -7.23799 -10.7308 -0.147086 -1.3474e-009 8.75224e-006 -1.45922e-008 5.63608 12.4718 1.36577 -6.43026 -1.00067 3.0916 35.2209 1.72105 0.13653 39.4834 1.49172 22.8335 4.84862 28.3038 16.1983 -10.1628 9.3184 1.76571 -45.0493 3.56053 -3.35956 -27.9367 -8.52395 8.8913 -4.32987 33.7578 -15.4546 5.82328 9.61819 -0.917488 0.532005 -7.60967 -6.6688 2.45905 11.7015 -5.11719 -0.114329 16.7346 -10.7016 0.185705 -23.1522 -0.25092 0.0462048 0.000530889 0.662642 
16.3592 99.6298 2.37409 -8.86745 0.0624893 -95.0478 -0.397627 -15.049 -1.12554 -0.0440725 8.03567 19.849 -7.34706 -10.5014 -0.136205 -1.3474e-009 8.75224e-006 -1.45922e-008 4.66235 12.1875 1.23809 -6.20901 -0.643726 2.81398 35.6105 1.7314 0.126566 39.7091 0.789888 21.9878 5.31433 29.9632 15.2173 -10.1388 9.32272 1.72966 -44.9533 3.54987 -3.36039 -27.748 -8.25501 7.98514 -4.27514 33.3039 -15.6348 5.82328 9.61819 -0.917488 0.854856 -7.60458 -5.98867 2.23124 13.7869 -5.25968 -0.36773 16.1639 -10.0799 1.08621 -24.0748 -0.120601 0.0462048 0.000530889 0.662642 
13.366 99.1141 2.52696 -8.85045 0.180419 -95.0675 -0.50093 -14.985 -0.668837 -0.49825 7.5127 23.8339 -6.84619 -10.5008 -0.122465 -1.3474e-009 8.75224e-006 -1.45922e-008 4.08095 11.7064 0.963039 -5.88557 -0.178547 2.41946 36.0027 1.73898 0.109882 40.3126 -1.32718 20.5948 5.89852 32.6018 13.8155 -10.022 9.33383 1.67984 -44.9023 3.54492 -3.36443 -27.518 -7.83993 6.93305 -4.19755 32.9906 -15.8237 5.82328 9.61819 -0.917488 1.04458 -7.64582 -5.46569 2.06752 15.5259 -5.46543 -0.585375 16.6449 -9.49226 2.98142 -25.3893 0.187311 0.0462048 0.000530889 0.662642 
10.1779 98.5394 2.80117 -8.867 0.295346 -95.3572 -1.03308 -15.1177 -0.631269 -0.446657 9.98464 26.6739 -4.52867 -8.58189 -0.0107902 -1.3474e-009 8.75224e-006 -1.45922e-008 3.59756 11.1356 0.916656 -5.51756 0.229396 2.26534 36.3297 1.74545 0.0965046 41.0843 -4.82275 18.6222 6.83191 35.8182 11.8131 -10.1427 9.3321 1.60852 -44.807 3.54506 -3.37838 -27.3681 -7.61123 5.78834 -4.09948 32.9652 -15.9589 5.82328 9.61819 -0.917488 1.16424 -7.5817 -5.17779 1.7306 16.8682 -5.36969 -0.983862 18.1905 -8.82653 4.97196 -26.405 0.546816 0.0462048 0.000530889 0.662642 
6.81157 98.0406 3.12974 -9.04877 0.0071478 -95.9885 -2.04827 -15.1506 -0.656767 -0.290163 13.4006 26.932 -0.818466 -4.39808 0.0298457 -1.3474e-009 8.75224e-006 -1.45922e-008 2.56327 10.6642 1.14243 -5.02888 0.392327 2.32301 36.6993 1.75204 0.0798695 41.6525 -9.24412 16.1416 8.23104 39.5117 9.04444 -10.6278 9.31503 1.46047 -44.6294 3.54719 -3.40876 -27.3286 -7.61561 4.85719 -3.93478 32.8406 -16.1704 5.82328 9.61819 -0.917488 1.37026 -7.26849 -4.95074 0.841218 18.0147 -4.08476 -1.41014 20.6028 -8.8837 7.04611 -26.7965 0.925615 0.0462048 0.000530889 0.662642 
3.38851 97.6708 3.48505 -9.48156 -0.818058 -96.2483 -3.63767 -15.2273 -0.206952 -0.0212775 17.4346 24.9893 2.17219 -1.34591 -0.119018 -1.3474e-009 8.75224e-006 -1.45922e-008 0.786937 10.4601 1.29263 -4.35289 0.344877 2.18897 37.0744 1.75657 0.0581896 41.838 -13.9001 13.1827 9.81878 43.4354 5.80612 -11.1202 9.30805 1.20546 -44.5917 3.56275 -3.4446 -27.0671 -8.03632 4.01547 -4.02174 32.8365 -16.0603 5.82328 9.61819 -0.917488 1.59698 -6.81844 -4.69279 -0.667368 18.8461 -1.36153 -1.1819 24.1342 -10.293 10.6474 -26.5559 1.53249 0.0462048 0.000530889 0.662642 
0.087963 97.4533 3.90028 -10.0389 -1.70528 -96.032 -5.41792 -14.9457 0.462396 0.553542 21.474 23.2672 3.25383 -2.29624 -0.154451 -1.3474e-009 8.75224e-006 -1.45922e-008 -0.894619 10.5502 1.26804 -3.84752 0.299847 1.86228 37.2798 1.76026 0.0492286 41.6289 -17.9006 9.84586 11.0993 46.696 2.8447 -11.0569 9.34502 0.819784 -44.788 3.59272 -3.47358 -26.4794 -9.39605 2.68947 -4.67866 33.9418 -15.0316 5.82328 9.61819 -0.917488 1.65865 -6.51348 -4.48122 -2.36267 18.3109 0.487742 -0.739759 30.1642 -10.6934 15.4436 -24.7766 2.1045 0.0462048 0.000530889 0.662642 
-2.98156 97.5214 4.38662 -10.5777 -2.23508 -96.3122 -6.67825 -13.593 0.95673 0.91601 23.893 23.3189 3.19359 -5.65937 -0.0382202 -1.3474e-009 8.75224e-006 -1.45922e-008 -1.64527 10.8312 1.35449 -3.959 0.382083 1.81223 37.2609 1.76752 0.0675643 41.1707 -20.444 6.6255 11.9274 48.6883 0.60682 -10.235 9.42808 0.333589 -44.8873 3.60485 -3.48224 -26.1848 -11.6404 0.77864 -5.53081 36.124 -13.5082 5.82328 9.61819 -0.917488 1.50598 -6.50844 -4.19822 -3.85857 15.3902 1.35349 -0.879771 39.4286 -9.83091 17.8936 -19.2908 1.6363 0.0462048 0.000530889 0.662642 
-5.79469 97.8291 4.86973 -11.0818 -2.52772 -97.6255 -7.38086 -11.4084 1.79444 0.790964 24.3738 24.0715 2.89798 -8.35705 0.0530492 -1.3474e-009 8.75224e-006 -1.45922e-008 -2.02682 11.2348 1.66481 -4.44356 0.539459 2.07245 37.1296 1.77741 0.101498 40.7144 -21.2534 4.18717 12.6273 49.9129 -1.02103 -9.10905 9.51134 -0.0510173 -44.5861 3.57453 -3.46837 -26.6588 -13.1819 -0.967839 -5.62451 37.2707 -13.0541 5.82328 9.61819 -0.917488 1.18937 -6.71266 -3.44897 -4.9467 10.2312 3.11056 -1.11138 50.4276 -10.302 16.0573 -10.1617 0.197137 0.0462048 0.000530889 0.662642 
-8.37434 98.1128 5.26255 -11.5586 -2.89719 -99.1673 -8.01723 -9.25877 2.55778 0.318266 24.2568 24.8948 2.38966 -9.87182 0.0909055 -1.3474e-009 8.75224e-006 -1.45922e-008 -3.05195 11.7198 1.86322 -4.56167 0.680009 2.0336 37.022 1.7823 0.12288 40.3149 -20.8382 2.61257 13.1893 51.0139 -1.81469 -8.35971 9.5481 -0.0851664 -44.1132 3.52842 -3.44904 -27.3133 -12.2479 -1.88837 -4.64017 35.4835 -14.5378 5.82328 9.61819 -0.917488 0.71306 -6.9446 -2.0752 -5.49885 4.32406 4.85142 -1.49041 60.2576 -11.5629 12.494 -2.50685 -0.71486 0.0462048 0.000530889 0.662642 
-10.874 98.4028 5.58479 -11.9251 -3.01618 -99.9322 -8.44549 -7.12352 2.78539 -0.17605 23.9322 25.6629 1.6901 -11.2699 0.106782 -1.3474e-009 8.75224e-006 -1.45922e-008 -4.163 12.1077 1.55859 -3.94455 0.73239 1.38768 36.9583 1.77871 0.123101 39.8743 -19.9619 1.30893 12.8345 51.2997 -0.872102 -8.13344 9.54251 0.171439 -43.9256 3.51177 -3.44438 -27.4051 -9.08784 -2.27038 -3.35438 31.655 -16.9997 5.82328 9.61819 -0.917488 0.0988896 -7.09689 -0.480796 -5.47245 -0.965424 5.45186 -2.00889 67.0366 -12.6405 10.3966 -0.622536 -0.773342 0.0462048 0.000530889 0.662642 
